<svg xmlns="http://www.w3.org/2000/svg" xmlns:xlink="http://www.w3.org/1999/xlink" id="svg" version="1.1" width="400" height="400" style="display: block;">
   <g id="svgg">
      <path id="path0" d="M191.869 221.083 C 191.869 221.647,191.929 221.878,192.003 221.596 C 192.076 221.314,192.076 220.853,192.003 220.571 C 191.929 220.289,191.869 220.520,191.869 221.083 " stroke="none" fill="#0055ff" fill-rule="evenodd" />
      <path id="path1" d="" stroke="none" fill="#246dff" fill-rule="evenodd" />
      <path id="path2" d="M78.434 97.011 C 77.847 97.415,77.056 97.842,76.677 97.959 C 65.702 101.373,46.370 121.675,38.208 138.360 C 28.789 157.616,32.238 172.597,47.905 180.473 C 50.928 181.993,65.628 186.400,78.367 189.606 C 104.140 196.091,114.570 202.197,120.385 214.202 C 125.141 224.019,124.013 229.556,115.554 237.921 C 103.213 250.124,75.902 259.462,59.392 257.122 C 42.653 254.750,35.106 245.728,31.327 223.572 C 29.796 214.595,29.078 213.508,25.243 214.368 C 21.222 215.269,21.088 216.012,23.161 225.858 C 27.733 247.567,34.384 256.557,49.654 261.667 C 79.649 271.704,130.015 248.281,130.015 224.295 C 130.015 210.599,117.819 197.043,98.536 189.306 C 91.148 186.342,87.896 185.435,68.747 180.995 C 51.557 177.009,44.479 173.386,40.947 166.764 C 35.815 157.143,41.877 139.836,57.052 120.791 C 64.400 111.568,75.800 102.768,78.407 104.305 C 78.872 104.580,80.136 104.945,81.215 105.117 C 88.801 106.329,94.544 111.993,99.183 122.840 C 101.050 127.206,103.981 128.075,107.056 125.176 C 110.237 122.175,102.415 107.399,94.490 101.441 C 89.203 97.466,81.047 95.216,78.434 97.011 M350.857 146.340 C 350.528 146.622,349.558 147.793,348.702 148.943 C 347.845 150.093,345.182 153.159,342.783 155.755 C 334.860 164.331,332.821 168.056,333.304 173.079 C 333.659 176.778,338.137 179.287,350.297 182.602 C 365.448 186.733,370.138 189.839,370.129 195.738 C 370.116 203.622,355.680 209.867,344.368 206.883 C 339.744 205.663,338.865 204.336,337.495 196.513 C 336.671 191.806,336.362 191.215,334.728 191.216 C 331.548 191.220,331.166 192.626,332.547 199.236 C 334.452 208.350,337.920 211.454,346.706 211.911 C 365.373 212.881,379.255 201.567,373.278 190.254 C 370.508 185.013,363.958 181.902,345.809 177.208 C 333.796 174.101,334.131 170.729,347.799 157.151 L 353.054 151.930 354.053 152.351 C 355.306 152.881,356.469 154.032,357.734 155.995 C 359.262 158.367,361.526 158.617,362.958 156.572 C 364.474 154.408,358.456 146.999,355.182 146.999 C 355.000 146.999,354.516 146.735,354.106 146.413 C 353.188 145.691,351.656 145.656,350.857 146.340 M292.240 168.591 C 291.837 168.665,291.442 168.817,291.362 168.928 C 291.281 169.039,290.458 169.382,289.531 169.691 C 288.605 170.000,287.848 170.347,287.848 170.461 C 287.848 170.575,287.255 170.895,286.530 171.172 C 285.805 171.449,285.212 171.761,285.212 171.865 C 285.212 171.970,284.784 172.305,284.261 172.609 C 281.805 174.039,275.873 180.087,272.906 184.187 C 272.265 185.073,271.625 185.940,271.484 186.114 C 270.015 187.922,265.593 196.242,265.593 197.199 C 265.593 197.451,265.478 197.657,265.338 197.657 C 265.198 197.657,264.921 198.237,264.723 198.945 C 264.422 200.020,264.138 200.357,263.001 200.994 C 260.692 202.285,260.598 202.402,260.918 203.562 C 261.087 204.172,261.501 204.747,261.943 204.983 C 262.735 205.408,262.754 207.482,261.975 208.457 C 261.528 209.015,261.532 216.962,261.979 217.890 C 262.165 218.278,262.478 219.253,262.675 220.059 C 262.872 220.864,263.345 222.014,263.727 222.615 C 264.109 223.215,264.422 223.804,264.422 223.924 C 264.422 224.242,267.925 227.526,268.263 227.526 C 268.421 227.526,269.103 227.798,269.780 228.131 C 272.322 229.381,281.551 229.574,283.679 228.422 C 283.958 228.270,285.176 227.923,286.384 227.649 C 287.592 227.376,288.715 227.048,288.880 226.919 C 289.045 226.790,289.835 226.472,290.637 226.213 C 293.619 225.246,301.434 221.018,303.814 219.084 C 303.980 218.950,304.507 218.592,304.986 218.288 C 305.465 217.984,306.120 217.510,306.442 217.236 C 306.764 216.961,307.950 215.975,309.078 215.045 C 314.580 210.506,320.470 204.048,322.840 199.957 C 323.001 199.679,323.561 198.721,324.085 197.827 C 325.808 194.885,325.159 192.631,322.764 193.242 C 322.169 193.394,320.059 196.374,320.059 197.062 C 320.059 197.202,319.946 197.360,319.810 197.413 C 319.673 197.467,319.227 198.044,318.818 198.696 C 316.837 201.860,310.368 208.958,307.353 211.276 C 306.726 211.758,305.993 212.350,305.723 212.592 C 304.727 213.484,302.908 214.850,302.247 215.202 C 301.873 215.401,301.346 215.764,301.076 216.008 C 300.351 216.663,297.868 218.162,295.575 219.327 C 294.466 219.890,293.492 220.429,293.411 220.525 C 293.331 220.620,292.606 220.942,291.801 221.239 C 290.996 221.537,290.073 221.945,289.751 222.146 C 289.429 222.346,288.243 222.738,287.116 223.016 C 285.988 223.295,285.000 223.618,284.919 223.736 C 283.998 225.082,272.471 225.121,270.837 223.784 C 268.524 221.891,268.064 221.357,267.322 219.703 C 265.915 216.567,265.566 209.049,266.723 206.792 C 266.862 206.519,267.210 205.307,267.496 204.100 C 268.126 201.434,268.197 201.338,269.845 200.877 C 270.566 200.675,271.157 200.404,271.157 200.275 C 271.157 200.145,271.453 199.952,271.816 199.845 C 272.544 199.630,286.735 192.644,286.969 192.386 C 287.050 192.297,287.709 191.968,288.433 191.654 C 289.158 191.341,289.818 190.993,289.900 190.881 C 289.982 190.768,290.772 190.392,291.654 190.044 C 292.537 189.696,293.327 189.323,293.409 189.215 C 293.565 189.010,297.293 187.162,300.293 185.803 C 301.259 185.365,302.733 184.691,303.569 184.305 C 304.404 183.918,305.195 183.601,305.326 183.600 C 305.457 183.599,305.911 183.417,306.336 183.195 C 306.761 182.974,307.815 182.562,308.679 182.280 C 309.542 181.998,310.381 181.667,310.542 181.545 C 310.703 181.422,311.889 181.040,313.177 180.696 C 314.466 180.351,315.731 179.953,315.989 179.810 C 316.247 179.668,317.089 179.457,317.858 179.341 C 320.284 178.977,321.282 176.826,319.596 175.598 C 318.859 175.061,313.560 175.797,312.592 176.570 C 312.430 176.698,311.245 177.096,309.956 177.452 C 308.668 177.809,307.482 178.202,307.321 178.324 C 307.160 178.447,306.501 178.711,305.857 178.911 C 305.212 179.111,304.158 179.515,303.514 179.810 C 302.870 180.104,301.223 180.824,299.854 181.410 C 297.060 182.605,293.634 184.239,293.411 184.482 C 293.331 184.571,292.672 184.894,291.947 185.202 C 291.223 185.510,290.432 185.910,290.190 186.091 C 289.949 186.272,289.158 186.672,288.433 186.979 C 287.709 187.287,287.050 187.612,286.969 187.701 C 286.889 187.791,286.230 188.120,285.505 188.433 C 284.780 188.747,284.121 189.093,284.040 189.204 C 283.959 189.315,283.300 189.639,282.576 189.924 C 281.852 190.209,281.193 190.534,281.113 190.646 C 281.032 190.758,280.242 191.158,279.356 191.535 C 278.470 191.912,277.613 192.324,277.452 192.451 C 277.291 192.578,275.977 193.294,274.532 194.043 C 273.087 194.791,271.727 195.582,271.510 195.799 C 269.821 197.487,271.722 193.510,274.821 188.873 C 279.016 182.593,284.616 177.008,288.913 174.817 C 290.018 174.253,290.993 173.698,291.079 173.584 C 291.960 172.413,298.834 172.147,300.127 173.235 C 301.344 174.259,303.009 174.471,303.880 173.712 C 304.564 173.116,304.754 172.474,304.246 172.474 C 304.085 172.474,303.953 172.271,303.953 172.022 C 303.953 171.774,303.240 170.851,302.368 169.973 L 300.783 168.375 296.878 168.415 C 294.730 168.437,292.643 168.516,292.240 168.591 M187.063 177.740 C 185.675 178.159,182.495 181.165,181.577 182.926 C 179.999 185.953,178.977 188.317,178.501 190.044 C 178.212 191.091,177.877 192.079,177.757 192.240 C 177.636 192.401,177.316 193.455,177.044 194.583 C 176.772 195.710,176.369 197.028,176.148 197.511 C 175.927 197.994,175.586 199.213,175.390 200.220 C 175.194 201.226,174.919 202.050,174.779 202.050 C 174.639 202.050,174.511 202.412,174.495 202.855 C 174.423 204.816,173.994 201.407,173.804 197.365 C 173.694 195.029,173.481 192.993,173.332 192.840 C 173.182 192.687,173.060 192.139,173.060 191.622 C 173.060 184.151,168.790 179.303,164.422 181.813 C 162.482 182.928,158.126 187.890,158.126 188.985 C 158.126 189.152,156.406 192.242,155.280 194.097 C 154.923 194.686,154.346 195.761,153.999 196.486 C 153.652 197.211,153.208 198.001,153.011 198.243 C 152.814 198.485,152.423 199.275,152.142 199.999 C 151.861 200.723,151.541 201.382,151.432 201.463 C 151.205 201.632,149.224 206.220,148.904 207.321 C 148.786 207.723,148.510 208.448,148.290 208.931 C 148.070 209.414,147.630 210.600,147.313 211.567 C 146.876 212.900,146.785 213.041,146.935 212.152 C 147.289 210.054,147.177 192.350,146.802 191.069 C 146.613 190.425,146.237 188.359,145.965 186.478 C 145.388 182.487,145.002 181.845,143.180 181.845 C 141.533 181.845,140.722 182.700,141.003 184.142 C 141.444 186.401,142.071 190.275,142.315 192.240 C 142.642 194.868,142.634 209.118,142.304 213.324 C 142.165 215.095,141.771 221.283,141.428 227.073 L 140.805 237.602 140.060 238.293 C 138.351 239.876,140.438 243.045,143.189 243.045 C 144.911 243.045,145.274 242.548,145.435 239.971 C 145.516 238.680,146.036 235.827,146.956 231.625 C 147.115 230.900,147.458 229.122,147.719 227.672 C 147.980 226.223,148.312 224.773,148.457 224.451 C 148.602 224.129,148.934 222.881,149.196 221.677 C 149.457 220.473,149.777 219.353,149.907 219.188 C 150.037 219.023,150.308 218.163,150.509 217.277 C 150.710 216.391,151.048 215.271,151.261 214.788 C 151.473 214.305,151.933 212.921,152.284 211.714 C 152.636 210.507,153.105 209.259,153.328 208.940 C 153.551 208.622,153.734 208.197,153.734 207.996 C 153.734 207.795,154.076 206.869,154.494 205.938 C 156.177 202.193,157.287 199.831,157.560 199.414 C 157.718 199.173,158.123 198.448,158.459 197.804 C 158.796 197.160,159.513 195.842,160.053 194.876 C 160.593 193.909,161.331 192.526,161.692 191.801 C 162.053 191.076,162.518 190.309,162.726 190.096 C 162.934 189.883,163.104 189.536,163.104 189.323 C 163.104 188.824,166.221 185.652,166.712 185.652 C 167.171 185.652,167.659 186.986,168.050 189.312 C 168.212 190.278,168.425 191.530,168.523 192.094 C 169.807 199.472,170.145 219.004,169.109 225.915 C 168.447 230.336,168.246 235.267,168.662 236.896 C 168.847 237.621,169.106 238.714,169.236 239.326 C 169.791 241.931,173.943 241.779,173.937 239.154 C 173.928 235.400,174.620 220.506,174.824 220.059 C 174.971 219.736,175.354 218.155,175.675 216.545 C 176.647 211.669,177.735 206.916,178.022 206.296 C 178.171 205.974,178.505 204.788,178.764 203.660 C 179.023 202.533,179.354 201.347,179.499 201.025 C 179.645 200.703,180.028 199.517,180.352 198.389 C 181.255 195.249,182.122 192.654,182.701 191.362 C 182.989 190.717,183.401 189.729,183.617 189.165 C 183.832 188.602,184.089 188.075,184.187 187.994 C 184.286 187.914,184.529 187.446,184.728 186.955 C 185.232 185.706,187.202 182.921,187.555 182.957 C 187.716 182.973,188.045 184.015,188.287 185.271 C 188.529 186.527,188.810 187.687,188.911 187.848 C 189.265 188.407,189.520 190.127,189.923 194.684 C 190.146 197.205,190.462 200.652,190.627 202.343 C 190.791 204.034,191.112 208.316,191.341 211.859 C 191.569 215.403,191.832 219.025,191.924 219.908 C 192.105 221.638,192.672 234.590,192.677 237.104 C 192.681 239.590,194.329 240.566,196.231 239.212 L 197.091 238.600 197.061 231.731 C 197.045 227.953,196.923 224.506,196.790 224.071 C 196.657 223.636,196.398 220.315,196.213 216.691 C 195.841 209.360,195.362 202.580,195.137 201.464 C 195.056 201.061,194.801 198.492,194.571 195.754 C 194.089 190.043,193.852 188.201,193.570 187.994 C 193.460 187.914,193.144 186.436,192.866 184.710 C 192.589 182.984,192.171 181.205,191.937 180.757 C 191.703 180.308,191.511 179.791,191.510 179.606 C 191.502 178.134,189.098 177.125,187.063 177.740 M204.704 178.880 C 204.385 179.505,204.214 180.105,204.324 180.215 C 204.534 180.424,205.410 187.702,206.582 198.975 C 206.967 202.679,207.365 206.303,207.466 207.028 C 208.485 214.333,209.093 227.526,208.410 227.526 C 206.506 227.526,206.149 231.748,207.869 233.920 C 209.316 235.748,212.006 235.242,212.006 233.142 C 212.006 232.979,212.131 232.801,212.284 232.748 C 213.170 232.437,213.261 215.084,212.385 213.665 C 212.293 213.517,211.907 210.283,211.526 206.478 C 210.614 197.362,209.235 185.618,209.012 185.066 C 208.914 184.824,208.698 183.326,208.531 181.737 C 208.093 177.573,206.122 176.101,204.704 178.880 " stroke="none" fill="#3b97f5" fill-rule="evenodd" />
      <path id="path3" d="M191.875 222.987 C 191.878 223.631,191.938 223.860,192.008 223.496 C 192.078 223.132,192.075 222.605,192.002 222.325 C 191.929 222.045,191.871 222.343,191.875 222.987 " stroke="none" fill="#00ffff" fill-rule="evenodd" />
      <path id="path4" d="M270.041 120.086 C 269.150 120.606,267.889 120.925,266.276 121.039 C 265.927 121.063,265.543 121.182,265.422 121.303 C 265.301 121.424,264.825 121.523,264.364 121.523 C 263.871 121.523,263.452 121.713,263.348 121.984 C 263.224 122.307,262.956 122.391,262.454 122.265 C 261.998 122.150,261.805 122.195,261.923 122.386 C 262.034 122.565,261.925 122.617,261.655 122.513 C 261.405 122.417,261.201 122.484,261.201 122.663 C 261.201 122.841,260.937 122.987,260.615 122.987 C 260.293 122.987,260.029 123.111,260.029 123.263 C 260.029 123.414,259.241 124.370,258.278 125.386 C 257.314 126.402,256.524 127.383,256.521 127.567 C 256.518 127.752,256.318 127.978,256.076 128.071 C 255.819 128.169,255.637 128.608,255.637 129.127 C 255.637 129.615,255.532 130.015,255.405 130.015 C 254.196 130.015,253.415 140.425,254.539 141.550 C 254.821 141.832,255.051 142.246,255.051 142.470 C 255.051 142.695,255.292 143.007,255.585 143.164 C 255.896 143.330,256.346 144.224,256.660 145.297 C 257.330 147.588,257.273 147.525,258.842 147.722 C 260.226 147.896,261.198 148.551,261.205 149.313 C 261.214 150.234,261.738 150.607,263.150 150.697 C 264.972 150.813,265.225 150.874,266.547 151.513 C 267.433 151.942,267.731 151.975,268.084 151.682 C 268.387 151.431,268.521 151.420,268.521 151.648 C 268.521 151.829,268.719 151.977,268.960 151.977 C 269.202 151.977,269.402 151.812,269.404 151.611 C 269.407 151.366,269.504 151.390,269.697 151.684 C 269.898 151.990,270.052 152.024,270.205 151.796 C 270.451 151.431,271.359 151.105,272.556 150.951 C 273.731 150.801,274.963 150.278,274.963 149.929 C 274.963 149.762,275.458 149.396,276.061 149.117 C 276.665 148.838,277.265 148.444,277.394 148.243 C 277.523 148.042,277.787 147.877,277.980 147.877 C 278.539 147.877,279.941 146.233,279.941 145.578 C 279.941 145.251,280.073 144.902,280.234 144.802 C 280.395 144.703,280.527 144.377,280.527 144.077 C 280.527 143.778,280.677 143.483,280.861 143.422 C 281.548 143.193,281.520 138.929,280.827 138.283 C 280.488 137.967,280.129 137.197,280.030 136.570 C 279.771 134.934,276.759 132.320,274.669 131.918 C 274.315 131.849,273.854 131.651,273.644 131.478 C 273.371 131.250,273.233 131.254,273.154 131.489 C 273.094 131.670,272.587 131.840,272.028 131.868 C 270.400 131.948,271.392 134.993,273.045 134.993 C 273.714 134.993,275.178 136.923,275.545 138.287 C 275.750 139.052,276.004 139.678,276.110 139.678 C 276.528 139.678,276.285 141.024,275.786 141.469 C 275.495 141.730,275.256 142.102,275.256 142.297 C 275.256 142.860,273.491 144.472,272.821 144.522 C 272.486 144.546,272.161 144.719,272.099 144.904 C 272.037 145.090,271.745 145.242,271.449 145.242 C 271.154 145.242,270.859 145.403,270.793 145.600 C 270.685 145.926,269.593 146.146,268.088 146.146 C 267.769 146.146,267.373 145.962,267.208 145.737 C 266.865 145.267,265.636 144.797,265.051 144.911 C 264.834 144.953,264.735 144.860,264.832 144.703 C 264.932 144.541,264.773 144.479,264.465 144.560 C 263.629 144.778,261.779 142.931,261.043 141.142 C 260.943 140.900,260.675 140.353,260.446 139.926 C 259.725 138.580,259.887 134.336,260.715 132.852 C 261.092 132.176,261.493 131.135,261.605 130.538 C 261.817 129.404,263.226 127.713,263.798 127.903 C 263.980 127.964,264.129 127.899,264.129 127.759 C 264.129 127.619,264.722 126.876,265.447 126.109 C 266.171 125.342,266.764 124.856,266.764 125.029 C 266.764 125.210,267.068 125.144,267.483 124.872 C 267.879 124.613,268.355 124.495,268.541 124.610 C 268.727 124.725,268.984 124.651,269.111 124.445 C 269.573 123.697,278.646 124.071,279.225 124.862 C 279.639 125.429,281.066 125.978,281.472 125.727 C 281.643 125.622,282.159 125.546,282.619 125.559 C 283.259 125.577,283.455 125.450,283.455 125.017 C 283.455 124.706,283.324 124.451,283.163 124.451 C 283.001 124.451,282.605 124.186,282.282 123.863 C 281.959 123.540,281.464 123.232,281.184 123.179 C 280.370 123.026,278.955 122.296,278.477 121.782 C 277.979 121.247,274.780 120.145,273.145 119.945 C 272.548 119.872,271.823 119.747,271.535 119.667 C 271.246 119.586,270.574 119.775,270.041 120.086 M201.464 128.519 C 201.464 128.837,200.692 129.041,198.090 129.409 C 196.996 129.564,196.022 129.818,195.926 129.973 C 195.831 130.128,195.160 130.489,194.435 130.775 C 193.711 131.062,192.946 131.535,192.736 131.827 C 192.526 132.118,192.160 132.357,191.924 132.357 C 191.689 132.357,191.345 132.687,191.162 133.089 C 190.978 133.492,190.727 133.821,190.602 133.821 C 190.478 133.821,190.291 134.089,190.187 134.417 C 190.083 134.744,189.720 135.272,189.380 135.588 C 189.040 135.905,188.858 136.164,188.975 136.164 C 189.092 136.164,188.920 136.452,188.591 136.805 C 188.263 137.157,187.994 137.678,187.994 137.962 C 187.994 138.245,187.815 138.583,187.597 138.712 C 187.379 138.840,186.957 139.473,186.661 140.117 C 186.364 140.761,185.984 141.382,185.816 141.496 C 185.195 141.917,185.237 148.224,185.871 149.657 C 186.186 150.369,186.612 151.578,186.818 152.343 C 187.023 153.108,187.303 153.734,187.439 153.734 C 187.575 153.734,187.894 154.136,188.149 154.628 C 188.683 155.661,189.449 156.479,190.315 156.943 C 190.649 157.122,190.922 157.519,190.922 157.826 C 190.922 158.133,191.056 158.467,191.220 158.568 C 191.384 158.669,191.442 158.875,191.349 159.025 C 191.202 159.263,191.817 159.433,192.460 159.332 C 192.581 159.313,192.679 159.424,192.679 159.578 C 192.679 159.873,194.117 160.326,195.974 160.616 C 196.578 160.711,197.072 160.887,197.072 161.009 C 197.072 161.130,197.533 161.396,198.097 161.600 C 198.660 161.804,199.122 162.094,199.122 162.244 C 199.122 162.662,199.696 162.571,200.191 162.076 C 200.434 161.833,200.774 161.722,200.947 161.829 C 201.134 161.944,201.177 161.885,201.053 161.685 C 200.929 161.485,201.030 161.347,201.300 161.347 C 201.552 161.347,201.757 161.215,201.757 161.054 C 201.757 160.893,202.138 160.761,202.603 160.761 C 203.229 160.761,203.438 160.895,203.408 161.274 C 203.353 161.965,204.950 161.806,205.564 161.060 C 205.805 160.766,206.909 160.084,208.017 159.545 C 210.979 158.104,211.077 158.043,211.247 157.552 C 211.395 157.126,211.781 156.481,212.445 155.552 C 212.606 155.327,213.034 154.843,213.397 154.478 C 213.794 154.077,214.056 153.454,214.056 152.909 C 214.056 151.580,214.648 149.048,214.958 149.048 C 215.307 149.048,215.310 146.499,214.961 146.283 C 214.815 146.193,214.526 145.460,214.320 144.655 C 214.114 143.850,213.816 143.192,213.659 143.192 C 213.501 143.192,213.452 143.112,213.550 143.014 C 214.068 142.496,211.362 140.083,210.021 139.869 C 209.242 139.744,208.691 139.464,208.491 139.090 C 208.129 138.415,205.984 138.292,203.953 138.832 C 203.309 139.003,202.561 139.159,202.291 139.180 C 202.021 139.201,201.855 139.307,201.923 139.417 C 201.990 139.526,201.713 139.699,201.305 139.801 C 200.892 139.905,200.443 140.307,200.290 140.711 C 200.138 141.109,199.879 141.435,199.714 141.435 C 199.549 141.435,199.414 141.683,199.414 141.986 C 199.414 142.725,200.313 142.925,202.663 142.708 C 204.728 142.518,206.895 142.990,206.546 143.553 C 206.425 143.750,206.491 143.782,206.722 143.639 C 206.926 143.513,207.177 143.525,207.280 143.667 C 207.383 143.808,207.731 144.068,208.053 144.244 C 209.172 144.855,210.395 149.634,209.433 149.634 C 209.267 149.634,208.958 150.310,208.747 151.136 C 208.535 151.963,208.127 152.785,207.841 152.964 C 207.555 153.142,207.321 153.450,207.321 153.647 C 207.321 154.094,206.387 154.612,205.583 154.612 C 205.250 154.612,204.978 154.744,204.978 154.905 C 204.978 155.066,204.801 155.198,204.584 155.198 C 204.367 155.198,203.758 155.413,203.230 155.676 C 201.715 156.432,196.779 155.806,196.779 154.858 C 196.779 154.723,196.605 154.612,196.392 154.612 C 195.972 154.612,193.497 152.351,193.167 151.666 C 193.056 151.434,192.637 150.664,192.236 149.954 C 191.836 149.244,191.508 148.507,191.508 148.315 C 191.508 148.124,191.306 147.562,191.059 147.066 C 190.347 145.639,190.869 139.202,191.755 138.485 C 192.102 138.204,192.387 137.776,192.387 137.534 C 192.387 137.292,192.792 136.753,193.287 136.336 C 193.783 135.919,194.083 135.578,193.954 135.578 C 193.826 135.578,194.046 135.352,194.444 135.076 C 194.843 134.800,195.409 134.273,195.702 133.905 C 195.996 133.537,196.424 133.236,196.654 133.236 C 196.884 133.236,197.072 133.132,197.072 133.006 C 197.072 132.880,197.462 132.546,197.940 132.264 C 198.417 131.982,198.989 131.570,199.210 131.348 C 199.432 131.127,200.260 130.898,201.051 130.841 C 201.911 130.778,202.504 130.591,202.526 130.375 C 202.546 130.177,202.594 129.916,202.634 129.795 C 202.673 129.674,202.684 129.460,202.658 129.320 C 202.632 129.179,202.829 129.148,203.095 129.250 C 203.453 129.387,203.532 129.314,203.400 128.969 C 203.302 128.713,203.221 128.448,203.221 128.380 C 203.221 128.313,202.826 128.258,202.343 128.258 C 201.859 128.258,201.464 128.375,201.464 128.519 M236.310 161.087 C 236.310 161.302,235.953 161.345,235.257 161.214 C 234.543 161.081,234.265 161.117,234.395 161.328 C 234.519 161.529,234.165 161.640,233.399 161.640 C 232.744 161.640,232.211 161.782,232.211 161.956 C 232.211 162.158,231.879 162.199,231.288 162.069 C 230.539 161.905,230.398 161.949,230.534 162.306 C 230.661 162.636,230.546 162.707,230.066 162.592 C 229.544 162.466,229.495 162.509,229.795 162.830 C 230.217 163.281,230.293 164.861,229.893 164.861 C 229.745 164.861,229.557 164.696,229.474 164.495 C 229.392 164.294,229.398 164.788,229.488 165.593 C 229.578 166.398,229.766 167.182,229.906 167.335 C 230.382 167.854,230.215 169.549,229.708 169.354 C 229.137 169.135,228.437 170.048,228.625 170.768 C 228.702 171.062,228.948 171.303,229.170 171.303 C 229.640 171.303,229.711 171.770,229.283 172.035 C 228.753 172.362,228.977 172.811,229.575 172.621 C 230.074 172.462,230.161 172.568,230.161 173.333 C 230.161 173.963,230.302 174.231,230.632 174.231 C 230.934 174.231,231.041 174.392,230.930 174.680 C 230.816 174.978,231.001 175.221,231.484 175.405 C 232.241 175.692,232.421 176.117,231.918 176.428 C 231.757 176.527,231.625 176.930,231.625 177.323 C 231.625 177.716,231.757 178.038,231.918 178.038 C 232.535 178.038,232.239 179.750,231.605 179.848 L 230.999 179.941 231.605 180.588 C 232.621 181.673,232.412 184.564,231.391 183.543 C 231.118 183.270,231.040 183.302,231.040 183.690 C 231.040 183.963,231.171 184.187,231.332 184.187 C 231.498 184.187,231.625 185.017,231.625 186.091 C 231.625 187.164,231.498 187.994,231.332 187.994 C 231.171 187.994,231.040 187.855,231.040 187.684 C 231.040 187.513,230.941 187.435,230.820 187.510 C 230.699 187.584,230.646 188.317,230.702 189.137 C 230.759 189.979,230.924 190.554,231.081 190.458 C 231.619 190.125,232.211 191.001,232.211 192.130 C 232.211 192.754,232.079 193.265,231.918 193.265 C 231.757 193.265,231.625 193.938,231.625 194.760 C 231.625 195.969,231.541 196.224,231.186 196.087 C 230.901 195.978,230.745 196.096,230.743 196.422 C 230.741 196.699,230.653 197.244,230.549 197.634 C 230.390 198.228,230.444 198.310,230.883 198.141 C 231.694 197.830,232.191 198.768,232.202 200.631 C 232.210 202.180,232.170 202.277,231.586 202.124 C 231.123 202.003,231.009 202.067,231.147 202.371 C 231.249 202.597,231.413 203.012,231.513 203.294 C 231.612 203.576,231.810 203.807,231.952 203.807 C 232.094 203.807,232.211 204.136,232.211 204.539 C 232.211 205.137,232.359 205.275,233.016 205.294 C 233.459 205.307,233.657 205.384,233.455 205.465 C 233.254 205.546,233.089 205.729,233.089 205.872 C 233.089 206.014,233.287 206.055,233.529 205.962 C 233.852 205.838,233.977 206.015,234.002 206.630 L 234.037 207.467 234.261 206.589 L 234.484 205.710 234.519 206.642 C 234.545 207.345,234.404 207.621,233.947 207.767 C 233.590 207.880,233.404 208.125,233.495 208.363 C 233.580 208.584,233.503 208.856,233.324 208.967 C 233.127 209.089,233.081 209.035,233.208 208.830 C 233.333 208.628,233.226 208.492,232.943 208.492 C 232.659 208.492,232.553 208.628,232.678 208.830 C 232.812 209.047,232.758 209.088,232.526 208.945 C 232.313 208.814,231.937 208.969,231.606 209.324 C 231.230 209.727,231.152 209.991,231.368 210.125 C 231.545 210.234,231.806 210.142,231.946 209.920 C 232.148 209.601,232.203 209.624,232.206 210.029 C 232.209 210.311,232.408 210.542,232.650 210.542 C 233.302 210.542,233.182 211.328,232.504 211.505 C 231.525 211.761,231.794 212.397,232.796 212.196 C 233.535 212.048,233.675 212.112,233.675 212.599 C 233.675 212.917,233.803 213.177,233.959 213.177 C 234.115 213.177,234.168 213.371,234.077 213.609 C 233.882 214.117,234.609 214.934,235.255 214.934 C 235.537 214.934,235.643 215.100,235.537 215.377 C 235.415 215.693,235.501 215.768,235.839 215.638 C 236.431 215.411,236.446 215.719,235.871 216.294 C 235.630 216.535,235.432 217.001,235.432 217.329 C 235.432 217.738,235.569 217.872,235.871 217.756 C 236.399 217.554,236.491 219.027,236.007 219.931 C 235.788 220.342,235.799 220.498,236.048 220.498 C 236.288 220.498,236.345 220.964,236.236 222.035 C 236.071 223.655,236.465 224.452,237.278 224.140 C 237.604 224.014,237.697 224.358,237.717 225.776 C 237.738 227.255,237.672 227.512,237.345 227.241 C 237.099 227.037,236.882 227.019,236.774 227.194 C 236.678 227.349,236.765 227.552,236.967 227.644 C 237.170 227.737,237.021 227.734,236.637 227.637 C 235.871 227.444,235.913 228.777,236.692 229.429 C 236.925 229.623,236.984 230.215,236.869 231.186 C 236.773 231.991,236.675 232.485,236.649 232.284 C 236.624 232.083,236.456 231.918,236.276 231.918 C 235.963 231.918,236.015 232.390,236.442 233.420 C 236.588 233.774,236.406 233.979,235.743 234.210 C 235.040 234.456,234.842 234.700,234.826 235.343 C 234.808 236.066,234.775 236.094,234.553 235.578 C 234.344 235.091,234.298 235.077,234.281 235.495 C 234.258 236.062,235.282 236.743,236.164 236.747 C 236.623 236.749,236.787 237.003,236.921 237.921 C 237.149 239.478,237.488 240.410,237.826 240.410 C 237.978 240.410,238.020 240.278,237.921 240.117 C 237.821 239.956,237.880 239.824,238.050 239.824 C 238.474 239.824,238.441 240.503,237.994 240.962 C 237.699 241.266,237.742 241.328,238.214 241.280 C 239.177 241.183,239.411 241.281,238.946 241.586 C 238.484 241.889,238.959 242.451,239.678 242.451 C 239.839 242.451,239.773 242.323,239.531 242.167 C 239.168 241.932,239.193 241.884,239.678 241.888 C 240.000 241.891,240.519 242.086,240.832 242.323 C 241.145 242.559,241.626 242.753,241.903 242.753 C 242.261 242.753,242.361 242.921,242.252 243.338 C 242.168 243.660,241.974 243.924,241.823 243.924 C 241.671 243.924,241.627 244.054,241.726 244.213 C 241.828 244.379,241.711 244.428,241.450 244.328 C 241.200 244.233,240.996 244.300,240.996 244.478 C 240.996 244.656,240.831 244.769,240.630 244.729 C 240.428 244.689,240.283 244.891,240.306 245.178 C 240.337 245.565,240.204 245.655,239.793 245.525 C 239.473 245.423,239.239 245.488,239.239 245.678 C 239.239 245.860,239.370 245.927,239.531 245.827 C 239.701 245.722,239.824 246.007,239.824 246.504 C 239.824 247.311,239.910 247.374,241.271 247.554 L 242.718 247.746 242.619 249.182 C 242.564 249.972,242.427 250.768,242.314 250.951 C 242.002 251.455,243.016 252.044,244.542 252.246 C 246.614 252.521,246.938 254.032,244.875 253.799 C 244.147 253.717,243.716 253.751,243.916 253.875 C 244.200 254.051,244.202 254.147,243.922 254.320 C 243.723 254.443,243.453 254.362,243.310 254.137 C 243.136 253.863,243.054 254.062,243.054 254.758 C 243.054 256.418,243.899 257.116,245.656 256.908 C 246.915 256.759,247.386 257.031,247.534 257.992 C 247.636 258.655,247.753 258.704,249.006 258.612 C 250.204 258.524,250.919 258.919,250.071 259.200 C 249.908 259.253,250.798 259.297,252.047 259.297 C 254.455 259.297,254.764 259.145,254.725 257.980 L 254.700 257.247 254.466 257.980 C 254.241 258.682,254.230 258.685,254.202 258.053 C 254.179 257.537,253.997 257.393,253.367 257.389 C 252.022 257.382,251.849 257.113,252.149 255.505 C 252.325 254.563,252.317 253.957,252.125 253.765 C 251.927 253.567,251.830 253.634,251.830 253.968 C 251.830 254.242,251.690 254.466,251.518 254.466 C 251.329 254.466,251.286 254.210,251.410 253.821 C 251.700 252.905,252.030 248.316,251.805 248.316 C 251.702 248.316,251.631 247.954,251.648 247.511 C 251.672 246.899,251.557 246.726,251.169 246.792 C 250.515 246.902,250.451 245.450,251.098 245.201 C 251.362 245.100,251.537 244.658,251.537 244.097 C 251.537 242.722,252.156 241.556,252.782 241.753 C 253.516 241.983,253.414 241.381,252.576 240.543 C 252.180 240.148,251.983 239.824,252.136 239.824 C 252.290 239.824,252.416 239.678,252.416 239.500 C 252.416 239.322,252.229 239.248,252.001 239.335 C 251.773 239.423,251.513 239.305,251.424 239.074 C 251.336 238.842,250.896 238.651,250.448 238.649 C 249.815 238.645,249.732 238.581,250.073 238.360 C 250.433 238.128,250.399 238.076,249.890 238.072 C 249.168 238.067,248.985 236.746,249.671 236.483 C 250.211 236.276,250.184 235.163,249.634 234.952 C 249.392 234.859,249.195 234.548,249.195 234.261 C 249.195 233.973,249.392 233.662,249.634 233.569 C 249.876 233.476,250.082 233.034,250.094 232.586 C 250.112 231.867,250.144 231.840,250.366 232.357 C 250.575 232.844,250.621 232.858,250.638 232.441 C 250.650 232.165,250.404 231.802,250.092 231.635 C 249.378 231.253,248.899 231.245,249.488 231.625 C 249.870 231.872,249.865 231.910,249.450 231.914 C 248.898 231.919,248.230 231.223,248.514 230.939 C 248.620 230.833,248.454 230.745,248.145 230.742 C 247.668 230.738,247.650 230.691,248.023 230.424 C 248.383 230.167,248.353 230.134,247.856 230.241 C 247.280 230.365,247.247 230.234,247.185 227.558 C 247.109 224.311,247.345 222.456,247.799 222.736 C 248.005 222.863,248.041 222.659,247.908 222.129 C 247.731 221.423,247.777 221.351,248.299 221.517 C 248.808 221.679,248.916 221.540,249.079 220.516 C 249.184 219.862,249.385 219.327,249.525 219.327 C 249.665 219.327,249.780 219.199,249.780 219.043 C 249.780 218.887,249.600 218.829,249.379 218.913 C 249.158 218.998,248.764 218.854,248.503 218.593 C 248.242 218.331,247.894 218.201,247.730 218.302 C 247.273 218.584,246.266 218.168,246.266 217.696 C 246.266 217.465,246.398 217.277,246.559 217.277 C 246.720 217.277,246.852 217.068,246.852 216.813 C 246.852 216.558,246.690 216.404,246.491 216.470 C 245.823 216.692,244.612 213.392,244.916 212.178 C 245.081 211.521,245.262 211.420,246.279 211.420 C 247.286 211.420,247.498 211.306,247.773 210.615 C 247.953 210.162,248.153 209.970,248.229 210.176 C 248.417 210.682,248.902 210.636,248.902 210.113 C 248.902 209.877,248.630 209.538,248.297 209.360 C 247.834 209.112,247.769 208.945,248.019 208.644 C 248.221 208.400,248.238 208.185,248.063 208.077 C 247.908 207.981,247.712 208.068,247.629 208.271 C 247.536 208.495,247.399 208.382,247.277 207.980 C 247.149 207.559,246.846 207.321,246.438 207.321 C 245.884 207.321,245.814 207.188,245.914 206.330 C 245.978 205.786,245.885 205.251,245.709 205.142 C 245.245 204.855,245.314 203.807,245.796 203.807 C 246.020 203.807,246.280 203.609,246.372 203.367 C 246.465 203.126,246.793 202.928,247.102 202.928 C 247.417 202.928,247.730 202.671,247.816 202.341 C 247.912 201.973,248.309 201.685,248.875 201.572 C 249.373 201.472,249.780 201.210,249.780 200.988 C 249.780 200.767,250.030 200.586,250.335 200.586 C 250.640 200.586,250.965 200.388,251.058 200.146 C 251.319 199.466,250.151 199.600,249.780 200.293 C 249.608 200.615,249.283 200.878,249.059 200.878 C 248.835 200.878,248.471 201.059,248.250 201.279 C 248.030 201.499,247.559 201.772,247.204 201.884 C 246.850 201.997,246.559 202.282,246.559 202.518 C 246.559 202.754,246.329 203.034,246.047 203.141 C 245.765 203.247,245.360 203.507,245.147 203.717 C 244.555 204.302,244.363 204.181,244.363 203.225 C 244.363 202.520,244.464 202.382,244.883 202.514 C 245.440 202.691,245.318 200.269,244.758 200.049 C 244.622 199.995,244.593 199.600,244.694 199.170 C 244.845 198.529,244.809 198.455,244.489 198.755 C 244.275 198.957,244.017 199.122,243.916 199.122 C 243.645 199.122,243.947 197.385,244.250 197.197 C 244.393 197.109,244.523 196.485,244.539 195.810 C 244.564 194.726,244.598 194.668,244.827 195.315 C 245.036 195.903,245.061 195.821,244.954 194.894 C 244.881 194.260,244.960 193.574,245.130 193.370 C 245.527 192.891,245.205 192.363,244.647 192.577 C 244.410 192.668,244.217 192.596,244.217 192.418 C 244.217 192.240,243.772 192.094,243.228 192.094 C 242.684 192.094,242.068 191.888,241.859 191.636 C 241.525 191.233,241.582 191.203,242.335 191.381 C 243.041 191.548,243.127 191.515,242.826 191.194 C 242.624 190.980,242.460 190.638,242.460 190.434 C 242.460 190.229,242.624 190.126,242.826 190.203 C 243.108 190.311,243.192 189.402,243.192 186.237 C 243.192 183.073,243.108 182.163,242.826 182.272 C 242.624 182.349,242.460 182.233,242.460 182.013 C 242.460 181.794,242.272 181.543,242.043 181.455 C 241.787 181.357,241.688 181.061,241.786 180.687 C 241.909 180.216,241.838 180.120,241.470 180.261 C 241.080 180.411,240.996 180.229,240.996 179.241 C 240.996 178.579,241.127 178.038,241.288 178.038 C 241.449 178.038,241.581 177.904,241.581 177.740 C 241.581 177.573,241.279 177.517,240.898 177.613 C 240.400 177.738,240.215 177.660,240.215 177.325 C 240.215 177.073,240.390 176.867,240.605 176.867 C 240.900 176.867,240.996 176.258,240.996 174.387 C 240.996 172.417,241.077 171.939,241.394 172.060 C 241.677 172.169,241.782 171.966,241.760 171.357 C 241.739 170.801,241.599 170.550,241.362 170.640 C 241.160 170.717,240.996 170.568,240.996 170.310 C 240.996 170.051,241.127 169.839,241.288 169.839 C 241.449 169.839,241.581 169.693,241.581 169.514 C 241.581 169.317,241.303 169.260,240.871 169.368 C 240.192 169.539,240.163 169.489,240.233 168.258 C 240.289 167.259,240.214 167.004,239.899 167.125 C 239.564 167.254,239.509 166.739,239.585 164.229 L 239.678 161.176 238.799 161.282 C 238.118 161.365,238.019 161.319,238.360 161.079 C 238.698 160.842,238.511 160.769,237.555 160.766 C 236.835 160.763,236.310 160.898,236.310 161.087 M231.113 211.321 C 230.911 211.403,230.747 211.641,230.747 211.851 C 230.747 212.061,230.253 212.326,229.649 212.438 C 228.694 212.616,227.277 213.614,227.569 213.903 C 227.856 214.186,229.285 213.630,229.428 213.180 C 229.519 212.895,229.984 212.583,230.463 212.487 C 230.944 212.391,231.332 212.125,231.332 211.891 C 231.332 211.659,231.497 211.403,231.698 211.321 C 231.900 211.240,231.933 211.174,231.772 211.174 C 231.611 211.174,231.314 211.240,231.113 211.321 M225.498 214.313 C 224.416 214.615,224.385 215.227,225.451 215.227 C 225.948 215.227,226.354 215.172,226.354 215.104 C 226.354 215.037,226.434 214.774,226.532 214.519 C 226.722 214.024,226.609 214.002,225.498 214.313 M344.250 217.896 C 344.070 221.098,344.101 221.482,344.573 221.840 C 345.555 222.585,345.762 222.331,345.792 220.338 C 345.808 219.284,345.954 218.173,346.117 217.868 C 346.280 217.564,346.413 216.648,346.413 215.832 L 346.413 214.348 345.432 214.348 L 344.451 214.348 344.250 217.896 M346.953 215.959 C 346.857 217.163,346.905 217.277,347.509 217.277 C 348.097 217.277,348.170 217.132,348.170 215.959 C 348.170 214.860,348.078 214.641,347.614 214.641 C 347.165 214.641,347.037 214.897,346.953 215.959 M319.093 225.631 C 318.804 226.029,318.376 226.354,318.142 226.354 C 317.907 226.354,317.716 226.618,317.716 226.940 C 317.716 227.262,317.584 227.526,317.423 227.526 C 317.262 227.526,317.130 228.136,317.130 228.882 C 317.130 230.383,316.146 232.345,315.515 232.103 C 315.107 231.947,314.605 234.314,314.934 234.845 C 315.033 235.007,314.982 235.139,314.820 235.139 C 314.657 235.139,314.485 235.897,314.436 236.823 C 314.350 238.469,314.249 238.593,313.298 238.223 C 312.900 238.067,312.853 238.269,312.968 239.651 C 313.139 241.713,312.925 242.517,311.895 243.699 C 311.274 244.410,311.006 245.097,310.849 246.374 C 310.692 247.646,310.505 248.126,310.128 248.225 C 309.271 248.449,308.638 249.889,308.638 251.616 C 308.638 252.772,308.476 253.422,308.053 253.960 C 307.731 254.369,307.467 254.883,307.467 255.101 C 307.467 255.319,307.118 255.760,306.692 256.080 C 304.532 257.702,304.101 257.980,303.733 257.980 C 303.513 257.980,303.405 258.096,303.493 258.239 C 303.582 258.382,303.433 258.678,303.163 258.898 C 302.733 259.248,302.697 259.232,302.870 258.770 C 302.992 258.445,302.954 258.313,302.771 258.426 C 302.607 258.527,302.498 258.764,302.527 258.953 C 302.579 259.283,302.460 259.688,301.886 261.127 C 301.741 261.490,301.481 261.786,301.307 261.786 C 301.133 261.786,301.084 261.634,301.199 261.448 C 301.329 261.239,301.280 261.190,301.070 261.319 C 300.884 261.434,300.730 261.883,300.728 262.316 C 300.723 263.168,300.360 263.927,300.010 263.818 C 299.589 263.688,298.682 264.557,298.682 265.091 C 298.682 266.148,298.114 266.764,297.135 266.769 C 296.125 266.774,295.338 267.140,295.278 267.632 C 295.258 267.799,295.225 268.067,295.205 268.228 C 295.185 268.389,294.912 268.521,294.598 268.521 C 294.116 268.521,294.014 268.760,293.939 270.059 L 293.851 271.596 292.680 271.691 C 291.513 271.786,290.070 272.961,289.258 274.479 C 289.011 274.941,288.905 274.969,288.672 274.637 C 288.467 274.345,288.424 274.456,288.516 275.036 C 288.640 275.809,287.164 277.093,286.911 276.433 C 286.862 276.307,286.252 276.848,285.554 277.634 C 284.857 278.420,284.461 279.023,284.676 278.974 C 284.890 278.926,284.782 279.013,284.434 279.168 C 284.085 279.324,283.728 279.821,283.636 280.281 C 283.507 280.930,283.308 281.113,282.734 281.113 C 282.059 281.113,281.452 281.473,280.338 282.535 C 280.108 282.754,279.662 282.865,279.346 282.782 C 279.029 282.699,278.697 282.751,278.607 282.897 C 278.517 283.043,278.615 283.177,278.826 283.195 C 279.037 283.212,278.626 283.341,277.913 283.481 C 277.200 283.621,276.510 283.903,276.380 284.108 C 276.194 284.401,276.143 284.395,276.139 284.078 C 276.136 283.754,276.050 283.747,275.695 284.041 C 275.454 284.241,275.256 284.648,275.256 284.945 C 275.256 285.670,274.171 286.214,272.899 286.126 C 271.898 286.057,270.278 287.146,270.278 287.888 C 270.278 288.027,269.833 288.141,269.289 288.141 C 268.745 288.141,268.136 288.338,267.936 288.580 C 267.662 288.910,266.925 289.019,264.971 289.019 C 263.542 289.019,262.372 289.124,262.372 289.251 C 262.372 289.649,259.129 290.188,256.320 290.257 C 254.843 290.294,253.684 290.403,253.744 290.499 C 253.976 290.876,251.382 291.732,249.796 291.802 C 247.901 291.885,246.852 292.153,246.852 292.553 C 246.852 293.140,245.924 292.780,245.122 291.881 C 244.339 291.005,244.225 290.965,243.543 291.330 C 243.139 291.547,242.673 291.640,242.508 291.538 C 242.343 291.436,242.112 291.506,241.995 291.695 C 241.852 291.927,241.917 291.962,242.195 291.803 C 242.516 291.620,242.531 291.650,242.262 291.941 C 241.923 292.308,241.540 292.295,236.823 291.757 C 235.503 291.606,235.019 291.255,235.781 291.001 C 235.973 290.937,235.573 290.893,234.892 290.904 C 234.165 290.915,233.549 291.091,233.401 291.332 C 233.051 291.897,231.142 291.560,230.320 290.788 C 229.970 290.459,229.448 290.190,229.159 290.190 C 228.857 290.190,228.694 290.034,228.776 289.820 C 228.885 289.537,228.417 289.476,226.785 289.558 C 224.877 289.655,224.657 289.611,224.698 289.141 C 224.729 288.784,224.440 288.527,223.792 288.336 C 223.269 288.182,222.840 287.943,222.840 287.805 C 222.840 287.668,221.391 287.555,219.619 287.555 C 216.160 287.555,214.975 287.088,215.430 285.903 C 215.554 285.580,215.506 285.479,215.291 285.612 C 215.108 285.725,214.813 285.533,214.622 285.176 C 214.327 284.626,214.348 284.564,214.769 284.725 C 215.056 284.836,215.184 284.794,215.078 284.623 C 214.980 284.464,214.586 284.334,214.202 284.334 C 213.818 284.334,213.430 284.214,213.339 284.066 C 213.248 283.919,212.615 283.702,211.931 283.584 C 211.247 283.466,210.853 283.311,211.054 283.241 C 211.255 283.171,211.420 282.979,211.420 282.814 C 211.420 282.649,211.229 282.587,210.996 282.677 C 210.726 282.781,210.626 282.699,210.720 282.453 C 210.825 282.179,210.664 282.105,210.172 282.199 C 208.885 282.445,206.579 281.563,206.658 280.855 C 206.697 280.514,206.590 280.234,206.421 280.234 C 206.253 280.234,206.209 280.386,206.324 280.572 C 206.454 280.783,206.404 280.831,206.190 280.699 C 206.001 280.582,205.917 280.373,206.003 280.234 C 206.089 280.095,206.025 279.899,205.861 279.798 C 205.698 279.697,205.560 279.787,205.555 279.997 C 205.549 280.234,205.432 280.184,205.247 279.868 C 205.032 279.499,204.577 279.356,203.618 279.356 C 202.556 279.356,202.258 279.243,202.142 278.797 C 201.975 278.161,200.155 276.615,198.924 276.065 C 198.049 275.674,197.095 274.722,197.086 274.231 C 197.083 274.070,197.208 274.136,197.365 274.378 C 197.521 274.619,197.650 274.670,197.653 274.490 C 197.663 273.766,196.434 272.598,195.854 272.782 C 195.195 272.991,194.143 271.976,194.143 271.131 C 194.143 270.802,193.771 270.474,193.139 270.246 C 192.188 269.902,191.215 268.322,191.215 267.121 C 191.215 266.922,190.837 266.764,190.361 266.764 C 189.891 266.764,189.331 266.700,189.116 266.621 C 188.607 266.434,187.791 266.956,188.116 267.261 C 188.254 267.390,188.426 267.332,188.498 267.130 C 188.570 266.929,188.774 266.764,188.952 266.764 C 189.130 266.764,188.896 267.160,188.433 267.643 C 187.970 268.126,187.433 268.521,187.239 268.521 C 187.044 268.521,186.806 268.727,186.710 268.979 C 186.613 269.231,186.415 269.363,186.270 269.274 C 185.910 269.051,185.627 269.872,185.857 270.473 C 185.983 270.800,185.932 270.891,185.701 270.748 C 185.468 270.604,185.359 270.825,185.359 271.441 C 185.359 272.017,185.537 272.415,185.849 272.534 C 186.486 272.779,187.408 273.706,187.408 274.102 C 187.408 274.273,187.540 274.331,187.701 274.231 C 187.862 274.132,187.994 274.187,187.994 274.355 C 187.994 274.522,188.319 274.741,188.716 274.841 C 189.113 274.940,189.526 275.305,189.634 275.651 C 189.742 275.998,190.208 276.714,190.669 277.243 C 191.131 277.772,191.508 278.332,191.508 278.487 C 191.508 278.643,191.690 278.770,191.911 278.770 C 192.133 278.770,192.496 278.992,192.717 279.264 C 193.070 279.698,193.055 279.734,192.591 279.560 C 192.273 279.441,192.135 279.478,192.243 279.653 C 192.342 279.813,192.777 279.867,193.210 279.772 C 193.819 279.640,193.898 279.672,193.558 279.913 C 193.163 280.194,193.336 280.362,193.924 280.269 C 194.045 280.250,194.143 280.366,194.143 280.527 C 194.143 280.688,194.341 280.820,194.583 280.820 C 194.824 280.820,195.022 280.966,195.022 281.144 C 195.022 281.322,195.356 281.730,195.764 282.052 C 196.298 282.472,196.454 282.802,196.319 283.229 C 196.190 283.635,196.237 283.756,196.468 283.613 C 196.653 283.499,196.964 283.531,197.158 283.685 C 197.352 283.839,198.038 284.060,198.682 284.176 C 199.806 284.379,200.284 284.732,200.284 285.359 C 200.284 285.520,200.156 285.454,200.000 285.212 C 199.654 284.677,199.654 285.139,200.000 285.944 C 200.138 286.266,200.261 286.365,200.272 286.164 C 200.284 285.963,200.429 285.798,200.596 285.798 C 200.805 285.798,200.805 285.974,200.596 286.364 C 200.184 287.133,200.215 287.355,200.707 287.166 C 201.213 286.972,203.673 287.873,204.175 288.436 C 204.484 288.783,204.461 288.786,204.026 288.457 C 203.683 288.196,203.514 288.177,203.514 288.398 C 203.514 288.726,203.897 288.843,204.639 288.742 C 204.855 288.712,205.185 288.873,205.371 289.098 C 205.558 289.324,206.270 289.667,206.955 289.861 C 207.639 290.055,208.199 290.340,208.199 290.495 C 208.199 290.650,208.463 290.776,208.785 290.776 C 209.120 290.776,209.370 290.971,209.370 291.233 C 209.370 291.484,209.501 291.609,209.660 291.510 C 209.954 291.328,210.237 291.515,211.682 292.843 C 212.901 293.964,214.420 294.583,215.951 294.583 C 216.703 294.583,217.502 294.747,217.727 294.949 C 218.819 295.928,219.100 296.047,220.329 296.047 C 221.907 296.047,223.737 296.830,223.515 297.410 C 223.409 297.684,223.511 297.753,223.836 297.628 C 224.098 297.528,224.494 297.597,224.717 297.781 C 224.939 297.966,225.234 298.097,225.372 298.072 C 225.944 297.970,226.310 298.135,227.068 298.837 C 227.717 299.439,228.052 299.543,228.850 299.394 C 229.864 299.204,232.796 299.976,232.796 300.433 C 232.796 300.565,233.357 300.730,234.041 300.800 C 234.725 300.870,235.792 301.154,236.410 301.431 C 237.029 301.707,237.449 301.795,237.345 301.626 C 237.230 301.441,237.454 301.318,237.904 301.318 C 238.316 301.318,238.653 301.198,238.653 301.052 C 238.653 300.644,239.853 301.052,240.033 301.521 C 240.151 301.827,240.637 301.914,241.892 301.852 C 242.828 301.805,243.537 301.712,243.470 301.645 C 243.274 301.448,244.838 300.720,245.103 300.884 C 245.236 300.965,245.387 300.809,245.439 300.537 C 245.527 300.081,245.576 300.084,246.065 300.572 C 246.655 301.163,249.817 301.062,250.022 300.446 C 250.299 299.616,252.129 299.258,253.944 299.677 C 255.663 300.074,258.826 299.461,259.462 298.608 C 259.552 298.487,260.903 298.442,262.463 298.509 C 264.184 298.582,265.300 298.518,265.300 298.346 C 265.300 298.190,265.135 298.161,264.934 298.282 C 264.685 298.431,264.697 298.343,264.970 298.006 C 265.191 297.734,265.553 297.511,265.775 297.511 C 265.997 297.511,266.180 297.412,266.181 297.291 C 266.185 296.857,267.584 296.398,267.910 296.724 C 268.080 296.894,268.316 296.935,268.435 296.817 C 268.553 296.698,268.457 296.478,268.220 296.329 C 267.941 296.153,268.746 296.081,270.502 296.125 C 272.587 296.178,273.181 296.108,273.072 295.824 C 272.969 295.558,273.154 295.503,273.727 295.628 C 274.278 295.748,274.402 295.715,274.127 295.522 C 273.565 295.126,275.506 293.171,276.699 292.933 C 277.194 292.834,277.599 292.637,277.599 292.496 C 277.599 292.355,277.853 292.240,278.164 292.240 C 278.474 292.240,278.926 292.042,279.168 291.801 C 279.409 291.559,279.788 291.362,280.009 291.362 C 280.553 291.362,281.986 290.680,281.989 290.420 C 281.990 290.305,282.271 290.061,282.612 289.879 C 283.049 289.645,283.174 289.642,283.034 289.868 C 282.925 290.045,282.978 290.190,283.153 290.190 C 283.327 290.190,283.550 289.792,283.647 289.304 C 283.792 288.582,283.933 288.452,284.409 288.604 C 284.796 288.727,284.925 288.680,284.792 288.465 C 284.682 288.286,284.732 288.141,284.902 288.141 C 285.073 288.141,285.214 287.910,285.217 287.628 C 285.220 287.226,285.276 287.202,285.475 287.516 C 285.680 287.840,285.848 287.797,286.349 287.297 C 286.690 286.956,287.200 286.676,287.483 286.676 C 288.052 286.676,289.605 285.173,289.605 284.622 C 289.605 284.425,289.804 284.348,290.059 284.446 C 290.309 284.541,290.465 284.523,290.406 284.404 C 290.347 284.285,290.604 283.896,290.977 283.539 C 291.349 283.182,291.655 282.985,291.656 283.100 C 291.657 283.215,291.986 282.914,292.388 282.430 C 292.904 281.809,293.062 281.723,292.926 282.138 C 292.778 282.591,292.877 282.547,293.366 281.945 C 293.713 281.517,293.997 280.957,293.997 280.701 C 293.997 280.444,294.203 280.234,294.454 280.234 C 294.713 280.234,294.824 280.094,294.710 279.910 C 294.573 279.690,294.732 279.649,295.205 279.783 C 295.746 279.936,295.803 279.910,295.461 279.668 C 295.090 279.404,295.124 279.328,295.681 279.175 C 296.043 279.076,296.340 278.812,296.340 278.590 C 296.340 278.367,296.504 278.180,296.706 278.175 C 297.394 278.156,298.389 277.067,298.389 276.332 C 298.389 275.798,298.629 275.492,299.268 275.209 C 299.751 274.995,300.146 274.707,300.146 274.568 C 300.146 274.429,300.353 274.394,300.605 274.491 C 300.957 274.626,301.020 274.531,300.878 274.083 C 300.772 273.749,300.826 273.499,301.005 273.499 C 301.177 273.499,301.318 273.175,301.318 272.779 C 301.318 272.067,302.306 270.873,302.910 270.854 C 303.845 270.825,304.622 269.648,304.695 268.149 C 304.762 266.797,304.911 266.475,305.972 265.394 C 306.633 264.721,307.174 264.034,307.174 263.867 C 307.174 263.700,307.438 263.423,307.760 263.250 C 308.082 263.078,308.347 262.777,308.348 262.581 C 308.349 262.386,308.690 262.068,309.105 261.875 C 309.739 261.581,309.834 261.593,309.698 261.948 C 309.608 262.181,309.673 262.372,309.842 262.372 C 310.034 262.372,310.073 262.027,309.948 261.457 C 309.819 260.867,309.852 260.607,310.043 260.725 C 310.231 260.840,310.299 260.483,310.229 259.754 C 310.123 258.658,310.727 257.981,311.610 258.204 C 311.714 258.231,311.726 257.973,311.637 257.631 C 311.526 257.207,311.582 257.076,311.813 257.219 C 312.035 257.356,312.152 257.177,312.152 256.700 C 312.152 256.299,312.335 255.789,312.558 255.566 C 312.781 255.343,313.310 254.404,313.732 253.480 C 314.155 252.556,314.617 251.871,314.759 251.959 C 314.907 252.050,314.917 251.671,314.782 251.075 C 314.592 250.232,314.627 250.061,314.960 250.189 C 315.249 250.300,315.373 250.124,315.373 249.607 C 315.373 249.141,315.493 248.941,315.698 249.068 C 315.918 249.204,315.955 249.058,315.813 248.609 C 315.676 248.179,315.710 248.016,315.910 248.140 C 316.114 248.265,316.198 247.711,316.161 246.493 C 316.110 244.791,316.154 244.649,316.764 244.562 C 317.346 244.480,317.423 244.300,317.423 243.018 C 317.423 241.753,317.514 241.532,318.130 241.298 C 318.900 241.005,319.047 240.675,319.343 238.580 C 319.451 237.815,319.656 237.189,319.799 237.189 C 319.942 237.189,320.059 236.662,320.059 236.018 C 320.059 235.373,319.927 234.846,319.766 234.846 C 319.605 234.846,319.473 234.517,319.473 234.114 C 319.473 233.559,319.626 233.382,320.107 233.382 C 320.456 233.382,320.655 233.295,320.549 233.189 C 320.443 233.083,320.492 232.834,320.657 232.635 C 321.164 232.024,321.382 226.454,320.932 225.613 C 320.443 224.698,319.768 224.705,319.093 225.631 M251.245 259.708 C 251.245 259.853,250.830 260.117,250.322 260.293 C 249.250 260.667,248.575 260.721,249.094 260.391 C 249.279 260.273,248.586 260.176,247.553 260.176 C 246.078 260.176,245.708 260.262,245.829 260.579 C 245.914 260.801,245.831 261.166,245.644 261.391 C 245.184 261.946,245.502 262.195,246.197 261.824 C 246.512 261.655,246.880 261.632,247.027 261.772 C 247.474 262.195,250.073 262.280,250.073 261.871 C 250.073 261.671,250.269 261.587,250.516 261.682 C 250.760 261.775,251.149 261.694,251.382 261.501 C 251.614 261.308,251.928 261.226,252.078 261.319 C 252.229 261.413,252.406 261.029,252.472 260.466 C 252.577 259.560,252.514 259.444,251.918 259.444 C 251.547 259.444,251.245 259.563,251.245 259.708 M251.537 262.639 C 250.079 262.795,248.749 264.129,250.053 264.129 C 250.225 264.129,250.381 263.832,250.400 263.470 C 250.427 262.953,250.463 262.924,250.571 263.338 C 250.646 263.627,250.566 264.035,250.393 264.243 C 249.935 264.795,250.148 264.872,251.806 264.759 C 253.143 264.668,253.294 264.588,253.294 263.971 C 253.294 263.594,253.428 263.202,253.592 263.101 C 253.903 262.908,253.701 262.337,253.350 262.420 C 253.239 262.446,252.423 262.545,251.537 262.639 M306.059 265.628 C 305.545 266.130,305.124 266.716,305.124 266.931 C 305.124 267.145,305.586 266.846,306.149 266.266 C 307.026 265.363,307.417 264.714,307.083 264.714 C 307.033 264.714,306.572 265.125,306.059 265.628 M247.884 265.862 C 247.971 266.091,247.875 266.382,247.670 266.509 C 247.367 266.696,247.368 266.811,247.672 267.116 C 247.978 267.421,248.097 267.412,248.313 267.063 C 248.458 266.828,248.683 266.748,248.813 266.886 C 248.942 267.024,248.884 267.196,248.682 267.268 C 247.879 267.555,248.389 267.887,249.632 267.887 C 250.936 267.887,251.542 267.568,250.942 267.198 C 250.724 267.063,250.730 266.885,250.963 266.605 C 251.433 266.038,251.027 265.458,250.479 265.913 C 250.248 266.105,249.974 266.177,249.871 266.074 C 249.767 265.970,249.837 265.886,250.024 265.886 C 250.212 265.886,250.366 265.774,250.366 265.638 C 250.366 265.502,249.772 265.403,249.045 265.418 C 248.032 265.440,247.761 265.543,247.884 265.862 " stroke="none" fill="#f6e206" fill-rule="evenodd" />
   </g>
</svg>